<svg width="169" height="25" viewBox="0 0 169 25" fill="none" xmlns="http://www.w3.org/2000/svg">
<path d="M14.6864 8.635C14.2004 7.699 13.5254 6.997 12.6614 6.529C11.7974 6.043 10.7984 5.8 9.66441 5.8C8.42241 5.8 7.31541 6.079 6.34341 6.637C5.37141 7.195 4.60641 7.987 4.04841 9.013C3.50841 10.039 3.23841 11.227 3.23841 12.577C3.23841 13.927 3.50841 15.124 4.04841 16.168C4.60641 17.194 5.37141 17.986 6.34341 18.544C7.31541 19.102 8.42241 19.381 9.66441 19.381C11.3384 19.381 12.6974 18.913 13.7414 17.977C14.7854 17.041 15.4244 15.772 15.6584 14.17H8.61141V11.713H18.9524V14.116C18.7544 15.574 18.2324 16.915 17.3864 18.139C16.5584 19.363 15.4694 20.344 14.1194 21.082C12.7874 21.802 11.3024 22.162 9.66441 22.162C7.90041 22.162 6.28941 21.757 4.83141 20.947C3.37341 20.119 2.21241 18.976 1.34841 17.518C0.502414 16.06 0.0794138 14.413 0.0794138 12.577C0.0794138 10.741 0.502414 9.094 1.34841 7.636C2.21241 6.178 3.37341 5.044 4.83141 4.234C6.30741 3.406 7.91841 2.992 9.66441 2.992C11.6624 2.992 13.4354 3.487 14.9834 4.477C16.5494 5.449 17.6834 6.835 18.3854 8.635H14.6864ZM28.6842 22.243C27.2802 22.243 26.0112 21.928 24.8772 21.298C23.7432 20.65 22.8522 19.75 22.2042 18.598C21.5562 17.428 21.2322 16.078 21.2322 14.548C21.2322 13.036 21.5652 11.695 22.2312 10.525C22.8972 9.355 23.8062 8.455 24.9582 7.825C26.1102 7.195 27.3972 6.88 28.8192 6.88C30.2412 6.88 31.5282 7.195 32.6802 7.825C33.8322 8.455 34.7412 9.355 35.4072 10.525C36.0732 11.695 36.4062 13.036 36.4062 14.548C36.4062 16.06 36.0642 17.401 35.3802 18.571C34.6962 19.741 33.7602 20.65 32.5722 21.298C31.4022 21.928 30.1062 22.243 28.6842 22.243ZM28.6842 19.57C29.4762 19.57 30.2142 19.381 30.8982 19.003C31.6002 18.625 32.1672 18.058 32.5992 17.302C33.0312 16.546 33.2472 15.628 33.2472 14.548C33.2472 13.468 33.0402 12.559 32.6262 11.821C32.2122 11.065 31.6632 10.498 30.9792 10.12C30.2952 9.742 29.5572 9.553 28.7652 9.553C27.9732 9.553 27.2352 9.742 26.5512 10.12C25.8852 10.498 25.3542 11.065 24.9582 11.821C24.5622 12.559 24.3642 13.468 24.3642 14.548C24.3642 16.15 24.7692 17.392 25.5792 18.274C26.4072 19.138 27.4422 19.57 28.6842 19.57ZM57.4907 3.235V5.746H49.5257V11.281H55.7357V13.792H49.5257V22H46.4477V3.235H57.4907ZM62.1522 5.152C61.5942 5.152 61.1262 4.963 60.7482 4.585C60.3702 4.207 60.1812 3.739 60.1812 3.181C60.1812 2.623 60.3702 2.155 60.7482 1.777C61.1262 1.399 61.5942 1.21 62.1522 1.21C62.6922 1.21 63.1512 1.399 63.5292 1.777C63.9072 2.155 64.0962 2.623 64.0962 3.181C64.0962 3.739 63.9072 4.207 63.5292 4.585C63.1512 4.963 62.6922 5.152 62.1522 5.152ZM63.6642 7.123V22H60.5862V7.123H63.6642ZM75.4543 6.88C76.6243 6.88 77.6683 7.123 78.5863 7.609C79.5223 8.095 80.2513 8.815 80.7733 9.769C81.2953 10.723 81.5563 11.875 81.5563 13.225V22H78.5053V13.684C78.5053 12.352 78.1723 11.335 77.5063 10.633C76.8403 9.913 75.9313 9.553 74.7793 9.553C73.6273 9.553 72.7093 9.913 72.0253 10.633C71.3593 11.335 71.0263 12.352 71.0263 13.684V22H67.9483V7.123H71.0263V8.824C71.5303 8.212 72.1693 7.735 72.9433 7.393C73.7353 7.051 74.5723 6.88 75.4543 6.88ZM84.6995 14.494C84.6995 13 85.0055 11.677 85.6175 10.525C86.2475 9.373 87.0935 8.482 88.1555 7.852C89.2355 7.204 90.4235 6.88 91.7195 6.88C92.8895 6.88 93.9065 7.114 94.7705 7.582C95.6525 8.032 96.3545 8.599 96.8765 9.283V7.123H99.9815V22H96.8765V19.786C96.3545 20.488 95.6435 21.073 94.7435 21.541C93.8435 22.009 92.8175 22.243 91.6655 22.243C90.3875 22.243 89.2175 21.919 88.1555 21.271C87.0935 20.605 86.2475 19.687 85.6175 18.517C85.0055 17.329 84.6995 15.988 84.6995 14.494ZM96.8765 14.548C96.8765 13.522 96.6605 12.631 96.2285 11.875C95.8145 11.119 95.2655 10.543 94.5815 10.147C93.8975 9.751 93.1595 9.553 92.3675 9.553C91.5755 9.553 90.8375 9.751 90.1535 10.147C89.4695 10.525 88.9115 11.092 88.4795 11.848C88.0655 12.586 87.8585 13.468 87.8585 14.494C87.8585 15.52 88.0655 16.42 88.4795 17.194C88.9115 17.968 89.4695 18.562 90.1535 18.976C90.8555 19.372 91.5935 19.57 92.3675 19.57C93.1595 19.57 93.8975 19.372 94.5815 18.976C95.2655 18.58 95.8145 18.004 96.2285 17.248C96.6605 16.474 96.8765 15.574 96.8765 14.548ZM111.773 6.88C112.943 6.88 113.987 7.123 114.905 7.609C115.841 8.095 116.57 8.815 117.092 9.769C117.614 10.723 117.875 11.875 117.875 13.225V22H114.824V13.684C114.824 12.352 114.491 11.335 113.825 10.633C113.159 9.913 112.25 9.553 111.098 9.553C109.946 9.553 109.028 9.913 108.344 10.633C107.678 11.335 107.345 12.352 107.345 13.684V22H104.267V7.123H107.345V8.824C107.849 8.212 108.488 7.735 109.262 7.393C110.054 7.051 110.891 6.88 111.773 6.88ZM121.019 14.548C121.019 13.018 121.325 11.677 121.937 10.525C122.567 9.355 123.431 8.455 124.529 7.825C125.627 7.195 126.887 6.88 128.309 6.88C130.109 6.88 131.594 7.312 132.764 8.176C133.952 9.022 134.753 10.237 135.167 11.821H131.846C131.576 11.083 131.144 10.507 130.55 10.093C129.956 9.679 129.209 9.472 128.309 9.472C127.049 9.472 126.041 9.922 125.285 10.822C124.547 11.704 124.178 12.946 124.178 14.548C124.178 16.15 124.547 17.401 125.285 18.301C126.041 19.201 127.049 19.651 128.309 19.651C130.091 19.651 131.27 18.868 131.846 17.302H135.167C134.735 18.814 133.925 20.02 132.737 20.92C131.549 21.802 130.073 22.243 128.309 22.243C126.887 22.243 125.627 21.928 124.529 21.298C123.431 20.65 122.567 19.75 121.937 18.598C121.325 17.428 121.019 16.078 121.019 14.548ZM152.112 14.197C152.112 14.755 152.076 15.259 152.004 15.709H140.637C140.727 16.897 141.168 17.851 141.96 18.571C142.752 19.291 143.724 19.651 144.876 19.651C146.532 19.651 147.702 18.958 148.386 17.572H151.707C151.257 18.94 150.438 20.065 149.25 20.947C148.08 21.811 146.622 22.243 144.876 22.243C143.454 22.243 142.176 21.928 141.042 21.298C139.926 20.65 139.044 19.75 138.396 18.598C137.766 17.428 137.451 16.078 137.451 14.548C137.451 13.018 137.757 11.677 138.369 10.525C138.999 9.355 139.872 8.455 140.988 7.825C142.122 7.195 143.418 6.88 144.876 6.88C146.28 6.88 147.531 7.186 148.629 7.798C149.727 8.41 150.582 9.274 151.194 10.39C151.806 11.488 152.112 12.757 152.112 14.197ZM148.899 13.225C148.881 12.091 148.476 11.182 147.684 10.498C146.892 9.814 145.911 9.472 144.741 9.472C143.679 9.472 142.77 9.814 142.014 10.498C141.258 11.164 140.808 12.073 140.664 13.225H148.899Z" fill="white"/>
<path d="M40.934 22.189C40.376 22.189 39.908 22 39.53 21.622C39.152 21.244 38.963 20.776 38.963 20.218C38.963 19.66 39.152 19.192 39.53 18.814C39.908 18.436 40.376 18.247 40.934 18.247C41.474 18.247 41.933 18.436 42.311 18.814C42.689 19.192 42.878 19.66 42.878 20.218C42.878 20.776 42.689 21.244 42.311 21.622C41.933 22 41.474 22.189 40.934 22.189ZM168.047 16.654C168.047 17.554 167.822 18.4 167.372 19.192C166.94 19.984 166.292 20.65 165.428 21.19C164.582 21.73 163.574 22.054 162.404 22.162V24.349H160.649V22.162C158.957 22 157.589 21.469 156.545 20.569C155.501 19.669 154.979 18.481 154.979 17.005H158.273C158.327 17.707 158.552 18.292 158.948 18.76C159.344 19.21 159.911 19.498 160.649 19.624V13.684C159.443 13.378 158.462 13.072 157.706 12.766C156.95 12.442 156.302 11.938 155.762 11.254C155.24 10.57 154.979 9.634 154.979 8.446C154.979 6.952 155.501 5.719 156.545 4.747C157.589 3.757 158.957 3.181 160.649 3.019V0.831999H162.404V3.019C163.988 3.163 165.257 3.667 166.211 4.531C167.183 5.377 167.732 6.547 167.858 8.041H164.564C164.51 7.483 164.294 6.988 163.916 6.556C163.538 6.106 163.034 5.8 162.404 5.638V11.47C163.61 11.758 164.591 12.064 165.347 12.388C166.103 12.694 166.742 13.189 167.264 13.873C167.786 14.539 168.047 15.466 168.047 16.654ZM158.111 8.284C158.111 9.022 158.327 9.598 158.759 10.012C159.209 10.426 159.839 10.759 160.649 11.011V5.557C159.875 5.647 159.254 5.926 158.786 6.394C158.336 6.862 158.111 7.492 158.111 8.284ZM162.404 19.624C163.196 19.498 163.817 19.183 164.267 18.679C164.717 18.157 164.942 17.536 164.942 16.816C164.942 16.096 164.717 15.538 164.267 15.142C163.835 14.728 163.214 14.395 162.404 14.143V19.624Z" fill="#49AA26"/>
</svg>
